<?xml version="1.0" encoding="UTF-8"?>
<svg width="139px" height="30px" viewBox="0 0 139 30" version="1.1" xmlns="http://www.w3.org/2000/svg" xmlns:xlink="http://www.w3.org/1999/xlink">
    <defs>
        <linearGradient x1="-1.20890403%" y1="50.0032408%" x2="98.7874292%" y2="50.0032408%" id="linearGradient-1">
            <stop stop-color="#3142C6" offset="0%"></stop>
            <stop stop-color="#544BC9" offset="30.59%"></stop>
            <stop stop-color="#AC60D1" offset="98.14%"></stop>
            <stop stop-color="#AF61D1" offset="100%"></stop>
        </linearGradient>
    </defs>
    <g id="Page-1" stroke="none" stroke-width="1" fill="none" fill-rule="evenodd">
        <g id="nabtive-logo" fill-rule="nonzero">
            <path d="M42.86787,13.466363 C42.4550057,12.6819804 41.8497384,11.8142653 41.2003789,11.1568653 C39.3324681,9.26402966 36.9929033,8.32885506 34.3353393,8.46774237 C30.7438201,8.65557093 27.3914681,10.8513133 26.0967574,14.6396302 C24.7031731,18.7110126 26.4334624,22.9715464 29.7497389,25.1593522 C33.728736,27.7849838 39.4821148,26.7797043 42.1650653,22.8339817 C42.7636518,21.9543621 43.1965581,20.9649554 43.7336827,19.972903 C44.4084287,21.1924659 45.1032167,22.4398063 45.7846433,23.6964058 C45.8648112,23.8432296 45.8955421,24.0337037 45.8968782,24.2030138 C45.9062312,25.4820999 45.894206,26.7598632 45.9089035,28.0389492 C45.9142479,28.4503203 45.7859794,28.6381488 45.3343672,28.6262443 C43.6147671,28.5825939 43.9421191,28.8497867 43.9140603,27.2492756 C43.8953545,26.2360596 43.9073797,25.2215209 43.9033712,24.2069821 C43.9033712,24.1858182 43.8886739,24.1659772 43.8445815,24.046931 C43.3595661,24.5627982 42.9293321,25.0575015 42.4603501,25.5112002 C41.0093122,26.9185916 39.280359,27.8061477 37.3042217,28.2942373 C32.1627908,29.5667098 26.848999,26.8643594 24.6256776,22.2136184 C22.2927934,17.3353668 24.0818724,11.1819973 28.7209181,8.26139551 C30.4632326,7.16484708 32.3658827,6.49157428 34.4021459,6.48628333 C38.8407721,6.4743787 42.2492414,8.40821923 44.5193276,12.207118 C46.2295748,15.0695195 47.9371499,17.935889 49.5658932,20.8445863 C50.3849413,22.3075326 51.2253675,23.7043423 52.5922292,24.7466585 C56.8451333,27.9873626 62.9004776,26.9635646 65.787856,22.541657 C68.5616634,18.2917051 67.5649099,13.1766837 63.4349298,10.170104 C58.9749256,6.92278633 52.7966572,8.47303331 50.1738326,13.1475835 C49.8317832,13.757365 49.5792546,14.4160876 49.195785,15.2441207 C48.7588702,14.3631783 48.0467126,13.5761501 48.0239983,12.7706037 C47.9117634,8.74022606 47.9812422,4.70455749 47.9879228,0.670211651 C47.9879228,0.63052956 48.0186539,0.589524734 48.0533932,0.502224136 C48.6452992,0.502224136 49.2559109,0.502224136 49.9520349,0.502224136 C49.9520349,3.61462274 49.9520349,6.72966682 49.9520349,9.92010687 C50.7630663,9.30900269 51.4578543,8.72699869 52.211432,8.22964983 C53.4954536,7.38309858 54.9117521,6.86987688 56.4509747,6.65294811 C60.931021,6.02068015 64.5078428,7.5801863 67.177432,11.1026332 C69.0760737,13.6078958 69.6800048,16.4822018 69.089435,19.5893095 C68.506882,22.6540896 66.9142143,25.0614697 64.2873812,26.755895 C61.176869,28.7638088 57.8552481,29.154016 54.3318714,27.909321 C51.5433667,26.9252053 49.6019687,25.0297241 48.1683005,22.5376888 C46.8228169,20.2004137 45.4693164,17.8697523 44.1131438,15.5404136" id="Path" fill="url(#linearGradient-1)"></path>
            <g id="Group" transform="translate(70.813604, 0.000000)" fill="#333333">
                <path d="M14.0532653,27.587424 C13.5361222,28.052956 12.8953432,28.4094204 12.1335874,28.6541572 C11.3705021,28.9002241 10.5755109,29.0225926 9.74728419,29.0225926 C7.83292396,29.0225926 6.35860069,28.5051871 5.32564382,27.470376 C4.29135753,26.4355649 3.77421438,24.9737945 3.77421438,23.0850649 L3.77421438,10.7431476 L0.127624016,10.7431476 L0.127624016,8.41415767 L3.77421438,8.41415767 L3.77421438,3.95037121 L6.52876604,3.95037121 L6.52876604,8.41415767 L12.7358132,8.41415767 L12.7358132,10.7431476 L6.52876604,10.7431476 L6.52876604,22.9294442 C6.52876604,24.1464778 6.83187309,25.0708913 7.44074599,25.7040147 C8.04828948,26.3384682 8.92038692,26.65503 10.0596971,26.65503 C10.6286875,26.65503 11.1777367,26.5645837 11.708174,26.3836914 C12.2372819,26.2027989 12.6972601,25.9434312 13.0854498,25.606918 L14.0532653,27.587424 Z" id="Path"></path>
                <path d="M19.0186371,3.3691213 C18.6304475,2.98073465 18.4363526,2.51520269 18.4363526,1.97252543 C18.4363526,1.4551199 18.6304475,1.00288885 19.0186371,0.614502189 C19.4068269,0.226115523 19.8840874,0.0319221916 20.4544074,0.0319221916 C21.0233977,0.0319221916 21.5019877,0.219465067 21.8901775,0.594550819 C22.2783672,0.969636571 22.4724621,1.41654725 22.4724621,1.93395278 C22.4724621,2.50323185 22.2783672,2.98206473 21.8901775,3.3704514 C21.5019877,3.75883806 21.0233977,3.95303139 20.4544074,3.95303139 C19.8840874,3.95170131 19.4068269,3.75750797 19.0186371,3.3691213 Z M19.0571902,8.41548777 L21.8117419,8.41548777 L21.8117419,28.8297293 L19.0571902,28.8297293 L19.0571902,8.41548777 Z" id="Shape"></path>
                <polygon id="Path" points="46.6372718 8.41548777 37.5600137 28.8297293 34.7283558 28.8297293 25.6896508 8.41548777 28.5598618 8.41548777 36.2013497 25.8024415 43.9212732 8.41548777"></polygon>
                <path d="M67.7018814,19.4765272 L50.6334988,19.4765272 C50.7890406,21.5980228 51.6026437,23.3125106 53.0769669,24.6186603 C54.5512901,25.9261399 56.4124737,26.5792149 58.6631765,26.5792149 C59.9301106,26.5792149 61.0933504,26.3530993 62.1542251,25.8995381 C63.2137702,25.4473071 64.1323972,24.7809313 64.9087766,23.9004109 L66.4602062,25.6853934 C65.5548733,26.772078 64.4235395,27.600725 63.0662049,28.1686739 C61.7088704,28.737953 60.2146059,29.0225926 58.5860703,29.0225926 C56.4909093,29.0225926 54.6350434,28.5756818 53.019802,27.6831905 C51.4032311,26.7906993 50.1429439,25.5550444 49.237611,23.976226 C48.3322782,22.3987378 47.8802765,20.6124251 47.8802765,18.6199483 C47.8802765,16.6274716 48.312337,14.842489 49.1791167,13.2636706 C50.0445672,11.6861823 51.2357246,10.4571779 52.7472715,9.57665749 C54.2601479,8.69746712 55.960472,8.2572069 57.848244,8.2572069 C59.7360157,8.2572069 61.4296928,8.69746712 62.929275,9.57665749 C64.4288572,10.4571779 65.6053911,11.6795319 66.4588767,13.2437193 C67.3123623,14.8092367 67.7391051,16.6008697 67.7391051,18.6186183 L67.7018814,19.4765272 Z M52.9028133,12.5095088 C51.5707377,13.765115 50.8142995,15.4011273 50.6334988,17.418876 L65.1028715,17.418876 C64.9220708,15.4011273 64.1656327,13.765115 62.833557,12.5095088 C61.5014813,11.2552327 59.8397103,10.6274296 57.848244,10.6274296 C55.8833659,10.6274296 54.2335596,11.2552327 52.9028133,12.5095088 Z" id="Shape"></path>
            </g>
            <path d="M16.3363131,10.2695046 C17.833633,11.7592273 18.582293,13.9279121 18.582293,16.7768903 L18.582293,28.6254445 L15.8560655,28.6254445 L15.8560655,17.0498064 C15.8560655,14.9263857 15.3310824,13.3075271 14.2824323,12.1945618 C13.2324662,11.0815965 11.7351463,10.5237825 9.79047245,10.5237825 C7.61422713,10.5237825 5.89323022,11.1787813 4.62616599,12.4861161 C3.35910175,13.7947823 2.72622751,15.6000227 2.72622751,17.9058312 L2.72622751,28.6267757 L0,28.6267757 L0,8.19134806 L2.61044179,8.19134806 L2.61044179,11.958922 C3.35252302,10.7154895 4.38275281,9.75162957 5.70113118,9.06467969 C7.01950954,8.3790611 8.5484074,8.03558617 10.2891405,8.03558617 C12.823269,8.03558617 14.8389931,8.77978187 16.3363131,10.2695046 Z" id="Path" fill="#333333"></path>
        </g>
    </g>
</svg>